<?xml version="1.0" encoding="iso-8859-1"?>
<!-- Uploaded to: SVG Repo, www.svgrepo.com, Generator: SVG Repo Mixer Tools -->
<svg fill="#000000" height="800px" width="800px" version="1.1" id="Layer_1" xmlns="http://www.w3.org/2000/svg" xmlns:xlink="http://www.w3.org/1999/xlink" 
	 viewBox="0 0 511.998 511.998" xml:space="preserve">
<g>
	<g>
		<path d="M484.866,7.655c-13.447-7.679-29.082-9.661-44.022-5.582c-14.939,4.08-27.396,13.607-35.075,27.055l-69.054,120.808
			h40.875L436.593,46.73c2.978-5.214,7.808-8.895,13.601-10.476c5.794-1.582,11.855-0.781,17.069,2.196
			c8.51,4.859,19.352,1.917,24.213-6.596C496.338,23.34,493.378,12.516,484.866,7.655z"/>
	</g>
</g>
<g>
	<g>
		<path d="M428.177,216.178c-6.276-2.618-13.157-4.073-20.374-4.073c-1.177,0-2.326,0.121-3.441,0.34l-1.35-37.551
			c-0.024-0.656-0.556-1.296-1.212-1.296H126.128l57.669-23.539l156.968-64.349c9.068-3.721,13.404-14.058,9.682-23.126
			c-3.722-9.071-14.093-13.387-23.157-9.666l-90.099,36.98c-0.176-0.606-0.381-1.203-0.626-1.8
			c-3.721-9.069-14.091-13.401-23.157-9.68l-86.477,35.487c-9.068,3.721-13.404,14.09-9.682,23.158
			c0.245,0.598,0.529,1.165,0.828,1.72l-27.849,11.429l-16.624,6.822l-44.407,18.222c-9.068,3.721-13.404,14.089-9.682,23.157
			c2.816,6.864,9.44,11.016,16.425,11.016c2.245,0,4.527-0.428,6.731-1.333l22.36-9.176l24.036-9.863l-0.844,23.386
			c-1.113-0.219-2.262-0.34-3.441-0.34c-7.216,0-14.098,1.454-20.374,4.075c-19.167,8.003-32.675,26.938-32.675,48.973
			c0,20.676,11.897,38.614,29.199,47.362c7.071,3.575,15.04,5.618,23.475,5.676l-5.908,163.817
			c-0.285,7.898,2.579,15.43,8.066,21.119s12.862,8.872,20.764,8.872h277.923c7.903,0,15.277-3.183,20.763-8.872
			c5.487-5.688,8.352-13.195,8.066-21.094l-5.908-163.83c8.436-0.059,16.405-2.107,23.475-5.683
			c17.302-8.748,29.2-26.69,29.2-47.365C460.851,243.119,447.344,224.183,428.177,216.178z M85.689,282.751
			c-0.301-0.015-0.599-0.046-0.904-0.046c-9.679,0-17.552-7.873-17.552-17.551c0-9.679,7.873-17.552,17.552-17.552
			c0.74,0,1.462-0.059,2.177-0.147L85.689,282.751z M407.803,282.705c-0.305,0-0.603,0.031-0.905,0.046l-1.273-35.295
			c0.715,0.088,1.439,0.147,2.177,0.147c9.68,0,17.553,7.873,17.553,17.552C425.355,274.832,417.482,282.705,407.803,282.705z"/>
	</g>
</g>
</svg>